<?xml version="1.0" encoding="iso-8859-1"?>
<!-- Generator: Adobe Illustrator 19.0.0, SVG Export Plug-In . SVG Version: 6.00 Build 0)  -->
<svg version="1.1" id="Capa_1" xmlns="http://www.w3.org/2000/svg" xmlns:xlink="http://www.w3.org/1999/xlink" x="0px" y="0px"
	 viewBox="0 0 219.006 219.006" style="enable-background:new 0 0 219.006 219.006;" xml:space="preserve">
<g>
	<g>
		<path style="fill:#009BDE;" d="M74.473,36.801c-33.04,33.041-33.04,86.611,0,119.652c33.041,33.04,86.611,33.04,119.651,0
			L74.473,36.801z"/>
		<path style="fill:#6EB4E7;" d="M51.066,111.751c2.96,16.373,10.75,32.045,23.406,44.702
			c15.923,15.922,36.614,24.148,57.478,24.725C125.369,142.199,91.761,112.409,51.066,111.751z"/>
	</g>
	<path style="fill:#3288C7;" d="M182.313,144.643c-10.132,10.132-10.132,26.56,0,36.691c10.133,10.133,26.561,10.133,36.692,0
		L182.313,144.643z"/>
	<g>
		<path style="fill:#6EB4E7;" d="M103.241,121.755c19.522,19.521,51.175,19.521,70.697,0c19.522-19.522,19.522-51.175,0-70.697
			L103.241,121.755z"/>
		<path style="fill:#3288C7;" d="M103.241,121.755c16.503,16.502,43.259,16.502,59.762,0c16.502-16.503,16.502-43.259,0-59.762
			L103.241,121.755z"/>
	</g>
	<g>
		<path style="fill:#FFB819;" d="M23.605,57.481h5.901v23.605H0C0,68.049,10.568,57.481,23.605,57.481z"/>
		<circle style="fill:#009BDE;" cx="54.351" cy="63.784" r="33.712"/>
		<g>
			<circle style="fill:#FFFFFF;" cx="49.692" cy="59.033" r="10.856"/>
			<circle style="fill:#512C1D;" cx="49.692" cy="59.033" r="5.428"/>
		</g>
	</g>
</g>
<g>
</g>
<g>
</g>
<g>
</g>
<g>
</g>
<g>
</g>
<g>
</g>
<g>
</g>
<g>
</g>
<g>
</g>
<g>
</g>
<g>
</g>
<g>
</g>
<g>
</g>
<g>
</g>
<g>
</g>
</svg>
